<svg width="363" height="522" viewBox="0 0 363 522" fill="none" xmlns="http://www.w3.org/2000/svg">
<path d="M190 48C198.769 52.6426 203.94 63.8783 207.125 72.8125C209.758 79.0184 214.779 81.3973 220.527 84.2461C239.074 93.6133 256.306 110.789 268.363 127.559C272.611 133.324 276.649 134.026 283.438 135.25C291.782 136.998 302.294 139.469 308.312 145.938C311.064 150.931 311.399 154.261 310.125 159.812C305.303 171.02 294.571 177.875 284 183C284.537 185.686 285.341 187.695 286.562 190.188C289.266 196.332 288.096 202.579 287 209C287.33 209.66 287.66 210.32 288 211C288.65 214.966 288.749 218.521 286.906 222.16C285.388 224.255 283.783 226.126 282 228C281.493 228.547 280.987 229.093 280.465 229.656C275.495 234.443 269.385 236.63 263 239C264.506 244.041 266.02 249.078 267.57 254.105C268.089 255.799 268.607 257.493 269.125 259.188C269.521 260.463 269.521 260.463 269.926 261.764C271.372 266.517 272.452 271.06 273 276C273.66 276 274.32 276 275 276C280.17 337.301 280.17 337.301 261.246 360.531C255.047 367.652 248.994 372.561 240 375.688C238.237 376.312 238.237 376.312 236.438 376.949C230.058 378.899 224.964 379.025 218.438 378.188C217.325 378.063 217.325 378.063 216.189 377.936C212.982 377.544 210.336 377.144 207.348 375.863C204.199 374.705 202.243 375.245 199 376C197.982 376.237 196.963 376.474 195.914 376.719C194.286 377.105 194.286 377.105 192.625 377.5C184.732 379.205 177.046 379.741 169 380C167.277 380.062 167.277 380.062 165.52 380.125C156.544 380.297 147.69 379.882 139.5 375.938C133.724 373.412 127.952 373.548 121.753 373.356C109.42 372.93 95.6304 371.802 86 363.375C84 361 84 361 83 359C83.1389 357.458 83.2862 355.916 83.4375 354.375C83.4933 349.005 81.9293 345.151 79.4375 340.5C55.6383 295.93 53.2508 240.397 67.6016 192.516C73.3159 174.323 80.7053 155.553 92.5625 140.438C95.6822 135.829 95.1368 132.231 94.4492 126.863C92.8952 113.498 92.7084 100.882 99.75 89.0625C103.399 85.7171 107.278 83.1225 112.344 82.8945C113.892 82.9642 115.44 83.0383 116.988 83.1172C120.073 82.9375 121.639 80.9111 124 79C133.877 75.053 144.94 78.1403 155 80C155.264 79.1402 155.529 78.2804 155.801 77.3945C159.933 65.6988 167.06 53.4739 177.844 46.8711C181.963 45.2072 185.935 46.6072 190 48Z" fill="#FBEFEF"/>
<path d="M190 48C198.769 52.6426 203.94 63.8783 207.125 72.8125C209.758 79.0184 214.779 81.3973 220.527 84.2461C239.074 93.6133 256.306 110.789 268.363 127.559C272.611 133.324 276.649 134.026 283.438 135.25C291.782 136.998 302.294 139.469 308.312 145.938C311.064 150.931 311.399 154.261 310.125 159.812C305.303 171.02 294.571 177.875 284 183C284.537 185.686 285.341 187.695 286.562 190.188C289.266 196.332 288.096 202.579 287 209C287.33 209.66 287.66 210.32 288 211C288.65 214.966 288.749 218.521 286.906 222.16C285.388 224.255 283.783 226.126 282 228C281.493 228.547 280.987 229.093 280.465 229.656C275.495 234.443 269.385 236.63 263 239C264.506 244.041 266.02 249.078 267.57 254.105C268.089 255.799 268.607 257.493 269.125 259.188C269.521 260.463 269.521 260.463 269.926 261.764C271.372 266.517 272.452 271.06 273 276C273.66 276 274.32 276 275 276C280.17 337.301 280.17 337.301 261.246 360.531C255.047 367.652 248.994 372.561 240 375.688C238.237 376.312 238.237 376.312 236.438 376.949C230.058 378.899 224.964 379.025 218.438 378.188C217.325 378.063 217.325 378.063 216.189 377.936C212.982 377.544 210.336 377.144 207.348 375.863C204.199 374.705 202.243 375.245 199 376C197.982 376.237 196.963 376.474 195.914 376.719C194.286 377.105 194.286 377.105 192.625 377.5C184.732 379.205 177.046 379.741 169 380C167.277 380.062 167.277 380.062 165.52 380.125C156.544 380.297 147.69 379.882 139.5 375.938C133.724 373.412 127.952 373.548 121.753 373.356C109.42 372.93 95.6304 371.802 86 363.375C84 361 84 361 83 359C83.1389 357.458 83.2862 355.916 83.4375 354.375C83.4933 349.005 81.9293 345.151 79.4375 340.5C55.6383 295.93 53.2508 240.397 67.6016 192.516C73.3159 174.323 80.7053 155.553 92.5625 140.438C95.6822 135.829 95.1368 132.231 94.4492 126.863C92.8952 113.498 92.7084 100.882 99.75 89.0625C103.399 85.7171 107.278 83.1225 112.344 82.8945C113.892 82.9642 115.44 83.0383 116.988 83.1172C120.073 82.9375 121.639 80.9111 124 79C133.877 75.053 144.94 78.1403 155 80C155.264 79.1402 155.529 78.2804 155.801 77.3945C159.933 65.6988 167.06 53.4739 177.844 46.8711C181.963 45.2072 185.935 46.6072 190 48ZM171.578 61.2422C170.793 62.4473 170.017 63.6584 169.25 64.875C168.852 65.4744 168.453 66.0738 168.043 66.6914C165.641 70.4454 164.407 73.5614 164 78C163.34 78 162.68 78 162 78C161.01 80.97 160.02 83.94 159 87C154.912 87.1778 151.425 86.9359 147.438 86C140.363 84.4653 131.935 83.6882 125 86C123.646 88.7088 123.935 91.0093 124 94C119.125 91.125 119.125 91.125 118 90C113.665 89.7387 109.53 89.7843 106.039 92.5586C98.35 101.579 100.429 113.705 101 125C101.576 130.106 102.646 135.043 104 140C104.66 140 105.32 140 106 140C106.186 141.609 106.186 141.609 106.375 143.25C106.778 146.801 106.778 146.801 108 149C109.446 151.892 109.632 154.814 110 158C108.35 158 106.7 158 105 158C104.807 157.408 104.613 156.817 104.414 156.207C103.056 152.085 101.679 148.005 100 144C96.2887 145.237 95.9233 146.309 94 149.625C93.505 150.463 93.01 151.301 92.5 152.164C90.9253 155.046 90.9253 155.046 89.5664 158.359C87.8925 162.25 85.97 165.914 83.9375 169.625C80.7768 175.401 78.1848 180.82 76.6875 187.25C75.8285 190.826 74.9118 194.355 73.8008 197.859C70.7425 207.552 68.8979 217.047 67.5781 227.125C67 231 67 231 66 232C65.8356 234.618 65.7384 237.207 65.6914 239.828C65.6761 240.636 65.6608 241.444 65.645 242.276C65.3315 262.71 66.65 281.164 72 301C72.3045 302.178 72.6091 303.357 72.9229 304.571C75.7938 318.5 75.7938 318.5 82 331C82.66 331 83.32 331 84 331C84.2269 332.155 84.4538 333.31 84.6875 334.5C85.4906 337.866 86.6459 340.096 88.6875 342.875C90.9915 346.254 91.1871 348.214 90.625 352.25C90.4523 353.06 90.2795 353.869 90.1016 354.703C89.7949 357.102 89.7949 357.102 91.2734 359.297C92.9518 361.351 92.9518 361.351 96 361C96.66 359.35 97.32 357.7 98 356C98.99 356 99.98 356 101 356C101 358.31 101 360.62 101 363C103.97 363.33 106.94 363.66 110 364C110.33 362.68 110.66 361.36 111 360C112.65 359.67 114.3 359.34 116 359C116 361.31 116 363.62 116 366C120.29 366 124.58 366 129 366C129 359.73 129 353.46 129 347C126.36 345.68 123.72 344.36 121 343C118.977 341.184 118.977 341.184 117.625 339.438C116.933 338.569 116.933 338.569 116.227 337.684C115.11 336.151 114.052 334.577 113 333C111.175 332.25 111.175 332.25 109.125 331.75C105.686 330.593 104.276 329.487 102.5 326.312C101.758 324.673 101.758 324.673 101 323C100.34 323 99.68 323 99 323C96.3201 311.06 96.3201 299.94 99 288C100.65 288 102.3 288 104 288C104.894 291.04 105.13 292.633 104.055 295.66C101.782 302.857 101.433 311.996 104.203 319.074C106.135 322.103 107.595 324.393 110.953 325.844C113.517 326.039 114.832 325.316 117 324C117.052 324.568 117.103 325.137 117.156 325.723C118.032 331.681 119.999 334.698 124.441 338.688C128.156 340.593 131.876 340.742 136 341C135.974 341.772 135.948 342.544 135.921 343.339C135.817 346.83 135.752 350.321 135.688 353.812C135.646 355.027 135.604 356.242 135.561 357.494C135.544 358.658 135.528 359.821 135.512 361.02C135.486 362.093 135.459 363.167 135.432 364.273C135.739 367.2 135.739 367.2 138.343 368.874C140.979 370.195 140.979 370.195 144 370C144.33 367.69 144.66 365.38 145 363C146.32 362.67 147.64 362.34 149 362C149 365.3 149 368.6 149 372C151.882 372.961 153.699 373.106 156.688 373.062C157.9 373.049 157.9 373.049 159.137 373.035C159.752 373.024 160.366 373.012 161 373C161 370.69 161 368.38 161 366C162.65 366 164.3 366 166 366C166 367.98 166 369.96 166 372C168.874 372.417 168.874 372.417 172 372C175.037 368.203 175.273 365.445 175 360.688C174.892 355.887 175.166 352.475 177.078 348.109C181.978 336.897 183.418 325.019 185 313C186.65 313 188.3 313 190 313C190.054 315.229 190.093 317.458 190.125 319.688C190.148 320.929 190.171 322.17 190.195 323.449C190.006 326.884 189.408 328.914 188 332C187.518 333.702 187.06 335.411 186.625 337.125C185.632 340.96 184.394 344.437 182.813 348.062C179.875 355.724 180.681 363.936 181 372C185.971 371.588 190.445 371.204 195 369C194.387 366.038 193.746 364.619 192 362C191.34 362 190.68 362 190 362C189.325 340.216 189.325 340.216 196.25 331.688C203.25 324.337 212.087 321.203 222.137 320.746C229.18 320.586 235.972 320.759 242.824 322.562C245.576 323.116 248.201 323.064 251 323C251.813 320.729 252.625 318.458 253.438 316.188C253.668 315.545 253.898 314.902 254.135 314.24C255.114 311.501 256.08 308.76 257 306C258.98 305.67 260.96 305.34 263 305C262.609 310.861 260.648 315.295 258.059 320.547C256.802 323.014 256.802 323.014 257 326C257.99 326.33 258.98 326.66 260 327C260 328.32 260 329.64 260 331C258.562 330.91 257.124 330.801 255.688 330.688C254.887 330.629 254.086 330.571 253.262 330.512C250.32 330.05 247.712 329.338 244.867 328.484C238.991 326.84 233.514 326.518 227.438 326.562C226.474 326.543 225.51 326.523 224.518 326.502C214.941 326.508 206.829 329.171 200 336C196.122 341.136 194.856 344.713 194.875 351.062C194.872 351.92 194.87 352.777 194.867 353.66C194.906 356.156 194.906 356.156 196 359C196.66 359 197.32 359 198 359C198.238 359.758 198.477 360.516 198.723 361.297C200.211 364.446 201.514 365.426 204.438 367.25C205.22 367.75 206.002 368.25 206.809 368.766C214.664 373.19 227.209 372.171 235.707 370.094C238.641 368.919 241.288 367.618 244 366C244.732 365.566 245.464 365.131 246.219 364.684C258.124 356.647 264.472 343.504 268 330C269.713 319.581 270.137 307.328 268 297C267.874 294.626 267.773 292.251 267.688 289.875C266.879 274.248 263.681 254.236 255 241C252.672 241.386 251.336 241.647 249.684 243.383C249.272 243.958 248.861 244.533 248.438 245.125C243.241 251.525 236.221 256.057 228 257C227.67 255.35 227.34 253.7 227 252C227.784 251.814 228.567 251.629 229.375 251.438C234.431 249.433 238.831 246.493 243 243C243 242.34 243 241.68 243 241C239.04 240.34 235.08 239.68 231 239C230.67 237.35 230.34 235.7 230 234C230.7 234.021 231.399 234.042 232.12 234.063C235.351 234.148 238.581 234.199 241.812 234.25C243.463 234.3 243.463 234.3 245.146 234.352C257.23 234.494 268.592 230.59 277.734 222.457C279.823 220.175 280.933 218.363 281.5 215.312C280.904 212.558 280.328 211.58 278 210C276.68 210 275.36 210 274 210C278.75 204.125 278.75 204.125 281 203C281.854 198.045 281.952 194.433 279.102 190.145C274.751 185.069 274.751 185.069 269 182C270.631 178.739 274.213 178.421 277.5 177.312C287.39 173.777 293.935 168.751 300.59 160.602C302 159 302 159 304 158C304.388 153.877 304.388 153.877 302.75 150.25C299.226 147.733 297.463 147 293 147C293 146.34 293 145.68 293 145C286.027 142.713 286.027 142.713 278.812 141.5C271.855 140.587 268.599 139.078 264.312 133.625C263.645 132.741 262.977 131.856 262.289 130.945C248.845 113.647 231.724 99.2584 213 88C212.285 87.5656 211.569 87.1312 210.832 86.6836C207.634 84.6538 207.634 84.6538 204 84C203.87 83.4354 203.74 82.8708 203.605 82.2891C200.965 72.3073 196.105 61.4592 187.793 55C180.768 51.0821 175.557 55.5846 171.578 61.2422Z" fill="#743636"/>
<path d="M266.687 429.25C272.164 432.143 275.69 434.937 278.27 440.602C280.537 448.048 279.565 455.905 276.406 462.934C273.294 467.507 268.194 468.886 263 470C257.111 470.393 252.177 470.038 247 467C242.116 462.721 239.537 458.231 238.715 451.754C238.3 444.933 239.916 439.51 244 434C250.756 428.269 258.223 426.381 266.687 429.25ZM253 441C250.165 445.252 250.363 449.009 251 454C252.951 457.677 254.037 458.699 258 459.937C261.132 460.003 262.478 459.801 265 458C267.386 454.421 267.786 452.284 268 448C266.765 443.884 265.885 441.669 262.437 439.062C258.26 437.242 256.655 438.533 253 441Z" fill="#F5D6D6"/>
<path d="M98.5625 428.063C101.239 429.092 102.298 429.712 104 432C104.293 434.918 104.293 434.918 104.188 438.188C104.16 439.274 104.133 440.361 104.105 441.48C104.071 442.312 104.036 443.143 104 444C107.3 444 110.6 444 114 444C113.954 443.096 113.907 442.193 113.859 441.262C113.805 439.492 113.805 439.492 113.75 437.688C113.704 436.516 113.657 435.344 113.609 434.137C114 431 114 431 115.852 429.07C118 428 118 428 120.625 428.188C123 429 123 429 125 431C125.212 433.69 125.304 436.274 125.301 438.965C125.305 439.754 125.309 440.543 125.314 441.356C125.32 443.026 125.32 444.697 125.316 446.367C125.313 448.924 125.336 451.48 125.361 454.037C125.364 455.659 125.364 457.281 125.363 458.902C125.372 459.668 125.382 460.434 125.391 461.223C125.345 466.499 125.345 466.499 123.634 468.983C121.272 470.453 119.725 470.409 117 470C115.049 468.606 114.213 467.524 113.312 465.313C112.846 461.861 112.942 458.482 113 455C110.03 454.67 107.06 454.34 104 454C104.046 454.82 104.093 455.64 104.141 456.484C104.177 457.562 104.213 458.64 104.25 459.75C104.296 460.817 104.343 461.885 104.391 462.984C104 466 104 466 102.18 468.395C100 470 100 470 96.875 469.938C94 469 94 469 92 466C91.7806 463.434 91.672 460.978 91.6641 458.41C91.6574 457.669 91.6507 456.928 91.6439 456.165C91.6338 454.599 91.6291 453.033 91.6294 451.467C91.625 449.074 91.5887 446.683 91.5508 444.291C91.5449 442.768 91.5409 441.245 91.5391 439.723C91.5247 439.009 91.5103 438.295 91.4955 437.56C91.5271 434.119 91.7761 432.298 93.8687 429.513C96 428 96 428 98.5625 428.063Z" fill="#F7DFDF"/>
<path d="M140.219 428.602C141.233 428.598 142.248 428.594 143.293 428.59C144.351 428.601 145.41 428.613 146.5 428.625C147.558 428.613 148.617 428.602 149.707 428.59C151.229 428.596 151.229 428.596 152.781 428.602C154.174 428.607 154.174 428.607 155.596 428.612C158 429 158 429 159.838 430.365C161 432 161 432 160.812 434.562C160 437 160 437 158 439C154.742 439.195 154.742 439.195 150.875 439.125C148.953 439.098 148.953 439.098 146.992 439.07C145.511 439.036 145.511 439.036 144 439C144 440.65 144 442.3 144 444C144.615 443.965 145.23 443.93 145.863 443.895C147.076 443.854 147.076 443.854 148.312 443.812C149.113 443.778 149.914 443.743 150.738 443.707C153 444 153 444 154.801 445.352C156 447 156 447 155.875 449.562C155 452 155 452 152 454C149.957 454.195 149.957 454.195 147.812 454.125C146.554 454.084 145.296 454.043 144 454C144 455.65 144 457.3 144 459C144.976 458.965 145.952 458.93 146.957 458.895C148.229 458.867 149.502 458.84 150.812 458.812C152.077 458.778 153.342 458.743 154.645 458.707C158 459 158 459 159.965 460.316C161 462 161 462 160.75 465.125C160 468 160 468 159 469C154.861 469.281 150.71 469.232 146.562 469.25C145.391 469.271 144.22 469.291 143.014 469.312C141.897 469.318 140.78 469.323 139.629 469.328C138.598 469.337 137.568 469.347 136.506 469.356C135.679 469.239 134.852 469.121 134 469C131.566 465.349 131.694 462.598 131.699 458.375C131.695 457.632 131.691 456.888 131.686 456.123C131.68 454.552 131.68 452.982 131.684 451.412C131.687 449.009 131.664 446.606 131.639 444.203C131.636 442.677 131.636 441.151 131.637 439.625C131.623 438.547 131.623 438.547 131.609 437.447C131.635 434.612 131.694 432.499 133.197 430.048C135.634 428.632 137.405 428.612 140.219 428.602Z" fill="#F8E0E0"/>
<path d="M226 97C236.011 104.314 245.417 112.035 254 121C253.435 121.266 252.871 121.531 252.289 121.805C249.01 123.517 246.058 125.651 243.023 127.758C241 129 241 129 239 129C239 129.66 239 130.32 239 131C233.959 133.815 229.774 135.519 224 136C223.67 136.99 223.34 137.98 223 139C220.667 139.042 218.333 139.041 216 139C215 138 215 138 214.812 134.125C214.897 126.553 216.32 119.084 219 112C219.66 112 220.32 112 221 112C221.11 111.42 221.219 110.84 221.332 110.242C222.314 105.403 223.548 101.346 226 97Z" fill="#EFACAC"/>
<path d="M177 429C179 431 179 431 179.227 433.797C179.211 435.541 179.211 435.541 179.195 437.32C179.186 439.206 179.186 439.206 179.176 441.129C179.159 442.448 179.142 443.766 179.125 445.125C179.115 446.465 179.106 447.805 179.098 449.145C179.074 452.43 179.041 455.715 179 459C180.048 458.965 181.096 458.93 182.176 458.895C183.555 458.866 184.934 458.839 186.312 458.813C187.003 458.787 187.693 458.762 188.404 458.736C193.51 458.662 193.51 458.662 195.961 460.352C197.429 462.681 197.346 464.304 197 467C193.844 470.156 190.341 469.295 186.035 469.322C184.869 469.319 183.702 469.316 182.5 469.313C181.333 469.329 180.167 469.345 178.965 469.361C177.296 469.362 177.296 469.362 175.594 469.363C174.57 469.366 173.545 469.369 172.49 469.372C171.668 469.249 170.847 469.127 170 469C167.537 465.306 167.677 462.435 167.664 458.156C167.657 457.391 167.651 456.625 167.644 455.837C167.634 454.219 167.629 452.602 167.629 450.985C167.625 448.509 167.589 446.034 167.551 443.559C167.545 441.987 167.541 440.415 167.539 438.844C167.525 438.103 167.51 437.362 167.496 436.599C167.525 433.279 167.552 431.481 169.865 428.998C172.676 427.684 174.1 428.008 177 429Z" fill="#F4D5D5"/>
<path d="M210.625 428.125C213 429 213 429 215 431C215.227 433.797 215.227 433.797 215.195 437.32C215.186 439.206 215.186 439.206 215.176 441.129C215.159 442.448 215.142 443.766 215.125 445.125C215.115 446.465 215.106 447.805 215.098 449.145C215.074 452.43 215.041 455.715 215 459C216.048 458.965 217.096 458.93 218.176 458.895C219.555 458.866 220.934 458.839 222.312 458.813C223.003 458.787 223.693 458.762 224.404 458.736C229.51 458.662 229.51 458.662 231.961 460.352C233.429 462.681 233.346 464.304 233 467C229.844 470.156 226.341 469.295 222.035 469.322C220.869 469.319 219.702 469.316 218.5 469.312C217.333 469.329 216.167 469.345 214.965 469.361C213.296 469.362 213.296 469.362 211.594 469.363C210.57 469.366 209.545 469.369 208.49 469.372C207.668 469.249 206.847 469.127 206 469C203.575 465.363 203.677 462.619 203.664 458.41C203.657 457.669 203.651 456.928 203.644 456.165C203.634 454.599 203.629 453.033 203.629 451.467C203.625 449.074 203.589 446.683 203.551 444.291C203.545 442.768 203.541 441.245 203.539 439.723C203.525 439.009 203.51 438.295 203.496 437.56C203.527 434.121 203.778 432.296 205.865 429.51C208 428 208 428 210.625 428.125Z" fill="#F4D5D5"/>
<path d="M256 245C258 246 258 246 259.402 249.691C259.925 251.312 260.436 252.936 260.938 254.562C261.202 255.412 261.466 256.262 261.739 257.137C268.274 278.743 268.274 278.743 266 285C265.505 282.525 265.505 282.525 265 280C263.298 280.541 263.298 280.541 261.562 281.094C260.042 281.563 258.521 282.032 257 282.5C256.256 282.738 255.512 282.977 254.746 283.223C249.055 284.955 243.159 286.422 237.5 283.875C236 282 236 282 235.375 279.312C236.763 271.957 242.561 267.367 248.031 262.707C253.675 258.063 253.675 258.063 256.367 251.559C256.374 249.337 256.27 247.204 256 245Z" fill="#EDABAB"/>
<path d="M267 287C268.68 297.437 269.338 307.442 269 318C268.97 319.074 268.941 320.148 268.91 321.254C268.401 330.783 265.632 339.663 261 348C260.67 348 260.34 348 260 348C259.876 346.206 259.876 346.206 259.75 344.375C259.241 340.09 257.567 337.478 255 334C255 333.34 255 332.68 255 332C257.475 331.505 257.475 331.505 260 331C260 329.68 260 328.36 260 327C259.01 326.67 258.02 326.34 257 326C257.377 322.233 258.225 319.362 260 316.062C261.995 312.312 262.649 309.218 263 305C261.35 305 259.7 305 258 305C258.33 304.01 258.66 303.02 259 302C257.68 301.01 256.36 300.02 255 299C255.544 295.205 257.038 293.73 259.938 291.312C260.648 290.711 261.358 290.109 262.09 289.488C265.283 287 265.283 287 267 287Z" fill="#EFDEDE"/>
<path d="M192 158C196.509 158.531 199.487 160.14 203 163C203 164.32 203 165.64 203 167C201.329 167.681 201.329 167.681 199.625 168.375C196.038 169.725 196.038 169.725 194 172C193.655 176.053 193.698 177.548 196 181C199.851 181.285 203.31 181.181 207 180C207.326 183.015 207.431 184.461 205.5 186.875C201.187 188.816 197.168 187.602 192.75 186.375C191 185 191 185 189.312 181.5C188.068 179.109 187.531 178.189 184.957 177.273C183.393 177.006 181.828 176.746 180.262 176.492C176.197 175.608 174.648 174.259 172 171C171.462 167.602 171.502 164.402 172 161C173 160 173 160 175.562 159.938C176.769 159.968 176.769 159.968 178 160C178.037 160.626 178.075 161.253 178.113 161.898C178.179 162.716 178.245 163.533 178.312 164.375C178.37 165.187 178.429 165.999 178.488 166.836C178.83 169.379 178.83 169.379 182 171C183.99 171.39 185.99 171.732 188 172C188.66 170.35 189.32 168.7 190 167C190.66 167 191.32 167 192 167C192 164.03 192 161.06 192 158Z" fill="#784242"/>
<path d="M187 62C191.305 66.9256 191.64 71.133 191.75 77.375C191.78 78.2064 191.809 79.0379 191.84 79.8945C191.91 81.9292 191.957 83.9646 192 86C189.562 85.1875 189.562 85.1875 187 84C186.67 83.01 186.34 82.02 186 81C183.69 81.66 181.38 82.32 179 83C178.67 84.32 178.34 85.64 178 87C175.562 86.625 175.562 86.625 173 86C171.768 83.5363 171.833 81.8105 171.812 79.0625C171.798 78.1872 171.784 77.312 171.77 76.4102C172 74 172 74 174 71C174.103 69.845 174.206 68.69 174.312 67.5C175 64 175 64 177.125 62C180.961 60.6658 183.12 60.8008 187 62Z" fill="#763D3D"/>
<path d="M290.102 150.91C292.965 153.02 293.941 154.633 294.5 158.125C294 161 294 161 292 164C288.875 164.187 288.875 164.187 286 164C285.67 164.99 285.34 165.98 285 167C283.721 167.124 282.442 167.247 281.125 167.375C277.652 167.69 277.652 167.69 275 170C272.375 170.125 272.375 170.125 270 170C270.375 167.562 270.375 167.562 271 165C271.66 164.67 272.32 164.34 273 164C272.561 159.17 271.571 157.226 268 154C268 153.34 268 152.68 268 152C274.855 149.891 283.255 147.945 290.102 150.91Z" fill="#7B4141"/>
<path d="M141 205C143.312 205.188 143.312 205.188 146 206C146.412 206.701 146.825 207.402 147.25 208.125C153.067 217.681 166.458 224.236 177 227C179.989 227.725 182.984 228.394 186 229C185.505 231.475 185.505 231.475 185 234C167.542 233.387 152.483 223.139 140.766 210.906C140.183 210.277 139.6 209.648 139 209C139.66 207.68 140.32 206.36 141 205Z" fill="#774040"/>
<path d="M254 122C257.225 125.124 260.294 128.363 263.312 131.688C264.01 132.454 264.707 133.221 265.426 134.012C267 136 267 136 267 138C251.44 142.592 251.44 142.592 243 142C242.67 140.35 242.34 138.7 242 137C252.5 128 252.5 128 256 128C255.34 126.02 254.68 124.04 254 122Z" fill="#ECAEAE"/>
<path d="M207 85C209.15 86.1182 211.295 87.2441 213.437 88.375C214.355 88.8507 214.355 88.8507 215.291 89.3359C219.887 91.7734 219.887 91.7734 221 94C219.68 94.33 218.36 94.66 217 95C216.89 95.5917 216.781 96.1834 216.668 96.793C214.916 105.523 214.916 105.523 212 109C210.68 109 209.36 109 208 109C205.853 105.512 205.76 102.74 205.812 98.6875C205.822 97.0536 205.822 97.0536 205.832 95.3867C206.006 91.874 206.45 88.4721 207 85Z" fill="#EFAEAE"/>
<path d="M267 287C267.33 291.95 267.66 296.9 268 302C259.4 302 259.4 302 256 300C255.367 297.922 255.367 297.922 255 296C256.456 294.685 257.915 293.373 259.375 292.062C260.187 291.332 260.999 290.601 261.836 289.848C265.171 287 265.171 287 267 287Z" fill="#F0AFAF"/>
<path d="M176 63C176.33 63.66 176.66 64.32 177 65C176.67 65.99 176.34 66.98 176 68C178.64 67.67 181.28 67.34 184 67C184.33 69.97 184.66 72.94 185 76C183.391 76.1238 183.391 76.1238 181.75 76.25C177.687 77.0626 176.337 77.6347 174 81C173.665 83.6683 173.665 83.6683 174 86C172 84 172 84 171.734 81.7227C171.74 80.8448 171.745 79.967 171.75 79.0625C171.745 78.1872 171.74 77.312 171.734 76.4102C172 74 172 74 174 71C174.361 68.6709 174.697 66.3375 175 64C175.33 63.67 175.66 63.34 176 63Z" fill="#C13131"/>
<path d="M170 183C174.638 183.627 174.638 183.627 176.41 185.453C178.707 187.688 181.234 188.178 184.258 189.059C186 190 186 190 186.805 192.035C186.869 192.684 186.934 193.332 187 194C186 195 186 195 183.438 195.375C178.007 194.783 173.824 191.824 170 188C169.875 185.375 169.875 185.375 170 183Z" fill="#7D4949"/>
<path d="M261 327C261.33 328.32 261.66 329.64 262 331C263.65 330.67 265.3 330.34 267 330C264.109 342.67 264.109 342.67 261 348C260.67 348 260.34 348 260 348C259.876 346.206 259.876 346.206 259.75 344.375C259.241 340.09 257.567 337.478 255 334C255 333.34 255 332.68 255 332C256.65 331.67 258.3 331.34 260 331C260.33 329.68 260.66 328.36 261 327Z" fill="#E9AAAA"/>
<path d="M278 156C280.97 156 283.94 156 287 156C288.285 161.139 287.222 162.378 285 167C282.69 167 280.38 167 278 167C278 163.37 278 159.74 278 156Z" fill="#BD2828"/>
<path d="M191.75 126.25C192.493 126.497 193.235 126.745 194 127C193.4 133.36 193.4 133.36 191.75 136C190 137 190 137 187.313 136.687C186.549 136.461 185.786 136.234 185 136C184.673 132.4 184.596 130.584 186.688 127.562C189 126 189 126 191.75 126.25Z" fill="#7C4848"/>
<path d="M236 160C236.312 162.25 236.312 162.25 236 165C233.43 167.717 231.947 168.916 228.187 169.25C227.466 169.167 226.744 169.085 226 169C225.642 163.632 225.642 163.632 227.062 161.125C230.002 159.418 232.679 159.812 236 160Z" fill="#7A4545"/>
<path d="M206 331C206.66 331.33 207.32 331.66 208 332C204.7 335.3 201.4 338.6 198 342C198 338.023 199.38 336.911 202 334C204.25 332.188 204.25 332.188 206 331Z" fill="#D5BEBE"/>
</svg>
